<svg width="159" height="181" viewBox="0 0 159 181" fill="none" xmlns="http://www.w3.org/2000/svg">
<path d="M163.627 -5.4082L163.624 75.5596L140.975 75.3884L140.744 75.3873C135.388 75.3873 130.13 76.8399 125.525 79.5952L119.998 82.9049L114.238 76.4001C113.774 75.8788 113.255 75.4049 112.691 74.9905C110.559 73.4222 107.946 72.7818 105.335 73.1852C102.723 73.5886 100.422 74.9872 98.8589 77.1242L95.2459 82.0617L90.3707 64.2183C89.5152 61.0827 87.0215 58.6801 83.8571 57.9494C81.568 57.4248 79.2106 57.8193 77.2183 59.0702C75.226 60.3201 73.8406 62.273 73.3139 64.5677L68.917 83.7359L66.21 71.5618C65.4304 68.0647 62.8202 65.2521 59.3996 64.2238C56.8652 63.46 54.1901 63.7311 51.8635 64.9876C49.5359 66.2429 47.8349 68.3303 47.0741 70.8685L43.8481 81.633L41.7073 75.1426C40.3626 71.0724 36.588 68.3391 32.312 68.3391H26.3878C23.3521 68.3391 20.8903 70.8057 20.8903 73.8498C20.8903 76.8939 23.3521 79.3604 26.3878 79.3604H31.5171L37.7865 98.3633C38.93 101.821 42.6694 103.708 46.1241 102.561C48.1637 101.885 49.7503 100.247 50.3671 98.1859L56.3935 78.0786L62.4112 105.136C62.7949 106.86 63.824 108.331 65.3128 109.279C66.3826 109.961 67.5986 110.311 68.8378 110.311C69.3194 110.311 69.8065 110.259 70.2881 110.151C72.7488 109.6 74.7081 107.652 75.2798 105.179L82.0726 75.5702L85.8451 89.3733C86.4641 91.6447 87.9308 93.5382 89.9715 94.7053C92.0122 95.8703 94.3839 96.169 96.65 95.5496C98.5565 95.0272 100.251 93.8578 101.421 92.2597L106.921 84.7421L111.776 90.223C115.28 94.1741 121.105 95.0757 125.634 92.3666L131.161 89.058C134.102 87.2979 137.41 86.3854 140.89 86.4096L163.624 86.5809L163.627 186.304H-5.4978V-5.4082H163.627Z" fill="#EBEBEB"/>
</svg>
